#!OML:ASF H:\Punching\Project 1\Capture day 1\Session 1\female.ASF
:FULLY-SPECIFIED
:DEGREES
157
root -4.86972 15.7063 -0.303263 14.2688 -25.2189 -4.73053
lowerback -6.98295 0.0875979 6.03345
upperback -6.19354 -0.212296 0.559661
thorax -2.53986 -0.334828 -2.80984
lowerneck -13.779 5.41612 10.8274
upperneck 39.2918 7.07993 -6.45978
head 17.43 3.52781 -3.596
rclavicle -2.62768e-014 2.41523e-014
rhumerus -34.4368 -0.190237 -78.0525
rradius 33.8029
rwrist 3.19537
rhand -15.3554 -3.4232
rfingers 7.12502
rthumb 10.8219 -33.1244
lclavicle -2.62768e-014 2.41523e-014
lhumerus -43.2259 8.24941 78.5497
lradius 35.7454
lwrist -17.9182
lhand -6.54682 11.6864
lfingers 7.12502
lthumb 19.3066 40.7481
rfemur -2.73417 3.947 29.4473
rtibia 11.5538
rfoot -16.4129 -13.4512
rtoes 0.119436
lfemur -38.8141 -9.81662 -12.8753
ltibia 22.6963
lfoot -21.5692 22.4764
ltoes -1.26429
158
root -4.89886 15.6959 -0.206134 14.3482 -25.1717 -4.83028
lowerback -7.1013 0.100893 6.05114
upperback -6.23058 -0.20364 0.546703
thorax -2.51277 -0.331772 -2.83317
lowerneck -13.7888 5.41459 10.82
upperneck 39.2961 7.06746 -6.42635
head 17.4309 3.526 -3.58143
rclavicle -5.7691e-014 -1.90833e-014
rhumerus -34.7271 -0.285712 -78.2108
rradius 33.9223
rwrist 2.96299
rhand -15.3468 -3.43109
rfingers 7.12502
rthumb 10.8303 -33.1318
lclavicle -5.7691e-014 -1.90833e-014
lhumerus -43.4083 8.54096 78.2023
lradius 35.3716
lwrist -18.1572
lhand -6.63841 11.6802
lfingers 7.12502
lthumb 19.2186 40.7506
rfemur -2.13918 3.96117 29.5043
rtibia 11.1311
rfoot -16.427 -13.495
rtoes -0.476501
lfemur -38.7264 -9.85342 -12.784
ltibia 22.7896
lfoot -21.4038 22.5072
ltoes -0.858692
159
root -4.92776 15.6851 -0.106892 14.4176 -25.1265 -4.92138
lowerback -7.23106 0.117705 6.05484
upperback -6.26414 -0.190623 0.531834
thorax -2.4751 -0.325684 -2.8505
lowerneck -13.8043 5.40794 10.809
upperneck 39.3014 7.04531 -6.38707
head 17.432 3.52044 -3.56532
rclavicle -7.0258e-015 1.77912e-014
rhumerus -35.0472 -0.388833 -78.3532
rradius 34.04
rwrist 2.72926
rhand -15.3185 -3.44626
rfingers 7.12502
rthumb 10.8575 -33.1456
lclavicle -7.0258e-015 1.77912e-014
lhumerus -43.5883 8.82633 77.8607
lradius 34.997
lwrist -18.3983
lhand -6.72508 11.6778
lfingers 7.12502
lthumb 19.1352 40.7565
rfemur -1.52803 3.99134 29.5481
rtibia 10.7077
rfoot -16.4284 -13.5397
rtoes -1.14158
lfemur -38.5771 -9.78372 -12.7791
ltibia 22.9346
lfoot -21.1249 22.4787
ltoes -0.469931
160
root -4.95649 15.6745 -0.00524664 14.4748 -25.08 -4.99895
lowerback -7.37281 0.135826 6.04078
upperback -6.29754 -0.175893 0.515059
thorax -2.43022 -0.317944 -2.85981
lowerneck -13.82 5.39582 10.7946
upperneck 39.3127 7.01419 -6.34351
head 17.4348 3.51137 -3.5486
rclavicle 1.31695e-014 4.77083e-015
rhumerus -35.3954 -0.506611 -78.4718
rradius 34.1397
rwrist 2.52655
rhand -15.2738 -3.4416
rfingers 7.12502
rthumb 10.9007 -33.1387
lclavicle 1.31695e-014 4.77083e-015
lhumerus -43.7706 9.10408 77.5264
lradius 34.6218
lwrist -18.6457
lhand -6.79097 11.6819
lfingers 7.12502
lthumb 19.0718 40.7668
rfemur -0.880201 4.02343 29.5731
rtibia 10.244
rfoot -16.3963 -13.5736
rtoes -1.89507
lfemur -38.3778 -9.57475 -12.8909
ltibia 23.1361
lfoot -20.7089 22.4153
ltoes -0.151912
161
root -4.98517 15.6654 0.0987711 14.5167 -25.0403 -5.06133
lowerback -7.52651 0.156594 6.00445
upperback -6.32736 -0.157453 0.494323
thorax -2.37435 -0.30724 -2.8606
lowerneck -13.8363 5.37919 10.7843
upperneck 39.3285 6.97388 -6.29783
head 17.4392 3.49951 -3.5336
rclavicle -3.06377e-014 -1.78906e-014
rhumerus -35.7597 -0.643224 -78.5701
rradius 34.2051
rwrist 2.38415
rhand -15.2153 -3.4173
rfingers 7.12502
rthumb 10.9571 -33.1114
lclavicle -3.06377e-014 -1.78906e-014
lhumerus -43.9505 9.37149 77.1989
lradius 34.2439
lwrist -18.9026
lhand -6.84681 11.6788
lfingers 7.12502
lthumb 19.0181 40.769
rfemur -0.173372 4.01491 29.5765
rtibia 9.6973
rfoot -16.3109 -13.5453
rtoes -2.73283
lfemur -38.1432 -9.23573 -13.1128
ltibia 23.3922
lfoot -20.1115 22.3937
ltoes 0.0841845
162
root -5.01378 15.6586 0.205317 14.5431 -25.0102 -5.11417
lowerback -7.68705 0.181482 5.95206
upperback -6.35854 -0.133034 0.472365
thorax -2.3154 -0.292965 -2.85329
lowerneck -13.8393 5.35594 10.7755
upperneck 39.3521 6.92449 -6.25247
head 17.4435 3.48443 -3.52132
rclavicle 3.38928e-014 1.0138e-014
rhumerus -36.1416 -0.804093 -78.6429
rradius 34.223
rwrist 2.32372
rhand -15.1643 -3.36351
rfingers 7.12502
rthumb 11.0063 -33.055
lclavicle 3.38928e-014 1.0138e-014
lhumerus -44.1381 9.63524 76.877
lradius 33.8644
lwrist -19.1747
lhand -6.87762 11.673
lfingers 7.12502
lthumb 18.9885 40.7661
rfemur 0.61394 4.01129 29.5611
rtibia 9.02759
rfoot -16.1364 -13.49
rtoes -3.63299
lfemur -37.8966 -8.83326 -13.3968
ltibia 23.6961
lfoot -19.3643 22.4796
ltoes 0.332411
163
root -5.04218 15.6546 0.314226 14.5485 -24.99 -5.14738
lowerback -7.85203 0.208039 5.87658
upperback -6.38716 -0.105354 0.444587
thorax -2.25079 -0.276155 -2.83883
lowerneck -13.8401 5.32921 10.7725
upperneck 39.3863 6.86719 -6.20468
head 17.4525 3.46747 -3.51095
rclavicle -3.33089e-014 -2.66371e-014
rhumerus -36.5281 -0.994495 -78.694
rradius 34.1845
rwrist 2.34658
rhand -15.1171 -3.2697
rfingers 7.12502
rthumb 11.0518 -32.9587
lclavicle -3.33089e-014 -2.66371e-014
lhumerus -44.3242 9.89446 76.5578
lradius 33.479
lwrist -19.4611
lhand -6.85196 11.6695
lfingers 7.12502
lthumb 19.0132 40.7602
rfemur 1.4832 4.01478 29.5168
rtibia 8.23048
rfoot -15.8615 -13.4129
rtoes -4.60041
lfemur -37.6516 -8.40404 -13.7258
ltibia 24.0269
lfoot -18.5153 22.6577
ltoes 0.607591
164
root -5.07027 15.6533 0.425112 14.5305 -24.9908 -5.16328
lowerback -8.00968 0.237481 5.77668
upperback -6.41528 -0.0716809 0.413164
thorax -2.18895 -0.255646 -2.81397
lowerneck -13.8325 5.30008 10.7713
upperneck 39.4325 6.80481 -6.15255
head 17.4654 3.44953 -3.50049
rclavicle -3.58434e-014 -1.55052e-014
rhumerus -36.9155 -1.21425 -78.7226
rradius 34.0822
rwrist 2.45547
rhand -15.0825 -3.1496
rfingers 7.12502
rthumb 11.0852 -32.8368
lclavicle -3.58434e-014 -1.55052e-014
lhumerus -44.5187 10.1658 76.2335
lradius 33.0949
lwrist -19.7727
lhand -6.84924 11.6378
lfingers 7.12502
lthumb 19.0158 40.7283
rfemur 2.40455 4.0315 29.4445
rtibia 7.36474
rfoot -15.4995 -13.3134
rtoes -5.64402
lfemur -37.4031 -8.00512 -14.0551
ltibia 24.3542
lfoot -17.6267 22.8841
ltoes 0.884079
165
root -5.09767 15.6542 0.537915 14.4798 -25.01 -5.1401
lowerback -8.15809 0.26681 5.63965
upperback -6.44235 -0.0350624 0.371551
thorax -2.13055 -0.232667 -2.77853
lowerneck -13.8244 5.269 10.7678
upperneck 39.4961 6.73667 -6.09112
head 17.4868 3.4303 -3.48712
rclavicle 5.33737e-014 1.41137e-014
rhumerus -37.2973 -1.47023 -78.7273
rradius 33.9113
rwrist 2.65187
rhand -15.0727 -3.00228
rfingers 7.12502
rthumb 11.0947 -32.689
lclavicle 5.33737e-014 1.41137e-014
lhumerus -44.7167 10.4469 75.9024
lradius 32.7084
lwrist -20.1014
lhand -6.79445 11.6069
lfingers 7.12502
lthumb 19.0685 40.6922
rfemur 3.30168 4.05605 29.3221
rtibia 6.58179
rfoot -15.1274 -13.2052
rtoes -6.74357
lfemur -37.1311 -7.65956 -14.3934
ltibia 24.6428
lfoot -16.734 23.0201
ltoes 1.21798
166
root -5.12419 15.6566 0.652111 14.3902 -25.0512 -5.06814
lowerback -8.28744 0.296958 5.45692
upperback -6.46826 0.00704276 0.315621
thorax -2.08066 -0.205858 -2.73179
lowerneck -13.8203 5.23643 10.7647
upperneck 39.5772 6.66196 -6.01986
head 17.5179 3.40989 -3.47111
rclavicle 1.27471e-014 -1.47101e-014
rhumerus -37.6721 -1.77769 -78.7015
rradius 33.6718
rwrist 2.93274
rhand -15.0759 -2.85087
rfingers 7.12502
rthumb 11.0915 -32.5378
lclavicle 1.27471e-014 -1.47101e-014
lhumerus -44.917 10.7409 75.5591
lradius 32.3235
lwrist -20.4531
lhand -6.71177 11.5769
lfingers 7.12502
lthumb 19.148 40.6543
rfemur 4.05949 4.08914 29.1412
rtibia 6.11111
rfoot -14.8405 -13.1073
rtoes -7.93968
lfemur -36.8116 -7.34026 -14.7626
ltibia 24.8691
lfoot -15.8456 22.9172
ltoes 1.70825
167
root -5.14963 15.6601 0.767414 14.2598 -25.1126 -4.93705
lowerback -8.39817 0.326299 5.2225
upperback -6.49281 0.0528549 0.242372
thorax -2.03902 -0.175958 -2.6736
lowerneck -13.8224 5.20295 10.7632
upperneck 39.6718 6.5816 -5.941
head 17.5577 3.38856 -3.45337
rclavicle -4.64411e-014 -2.98177e-014
rhumerus -38.0355 -2.14155 -78.6426
rradius 33.3646
rwrist 3.3052
rhand -15.089 -2.70621
rfingers 7.12502
rthumb 11.0789 -32.3938
lclavicle -4.64411e-014 -2.98177e-014
lhumerus -45.1138 11.0472 75.2028
lradius 31.9387
lwrist -20.821
lhand -6.6125 11.5543
lfingers 7.12502
lthumb 19.2435 40.6223
rfemur 4.55116 4.12679 28.8908
rtibia 6.19872
rfoot -14.77 -13.0329
rtoes -9.18542
lfemur -36.4265 -7.00105 -15.2008
ltibia 25.0188
lfoot -14.9574 22.4915
ltoes 2.33944
168
root -5.17383 15.6648 0.883327 14.0917 -25.1927 -4.74845
lowerback -8.48613 0.355738 4.94052
upperback -6.5195 0.103644 0.151537
thorax -2.01171 -0.142699 -2.60643
lowerneck -13.823 5.16704 10.763
upperneck 39.7739 6.49451 -5.8559
head 17.6004 3.36569 -3.43449
rclavicle 5.44173e-015 1.63003e-014
rhumerus -38.3934 -2.57348 -78.5397
rradius 32.9983
rwrist 3.7801
rhand -15.1115 -2.53523
rfingers 7.12502
rthumb 11.0573 -32.224
lclavicle 5.44173e-015 1.63003e-014
lhumerus -45.312 11.3624 74.8327
lradius 31.5591
lwrist -21.1989
lhand -6.5066 11.5437
lfingers 7.12502
lthumb 19.3453 40.6015
rfemur 4.73432 4.16812 28.5713
rtibia 6.9195
rfoot -14.9431 -12.9778
rtoes -10.4869
lfemur -35.9695 -6.5924 -15.7362
ltibia 25.0945
lfoot -14.088 21.7552
ltoes 3.07273
